<svg xmlns="http://www.w3.org/2000/svg" xmlns:xlink="http://www.w3.org/1999/xlink" xmlns:sketch="http://www.bohemiancoding.com/sketch/ns" viewBox="0 0 60 60" x="0" y="0" width="95" height="95" class="image-svg-svg bn" style="overflow: visible;"><g hollow-target="iconBnFill" mask="url(#7d8219b2-33dc-4a32-ba72-79c3fc9a004f)"><g><svg fill="#000000" xmlns="http://www.w3.org/2000/svg" xmlns:xlink="http://www.w3.org/1999/xlink" xmlns:sketch="http://www.bohemiancoding.com/sketch/ns" viewBox="0 0 60 60" version="1.1" x="0" y="0" style="overflow: visible;" width="60" height="60" filtersec="colorsf5339672571" filter="url(#4uqVt_QvbgyDONc-JjP4m)"><g transform="scale(1, 1) skewX(0)"><title>96 - Rounded (Solid)</title><desc>Created with Sketch.</desc><g fill-rule="evenodd"><g fill="#000000"><path d="M49.001,0 L10.999,0 C4.934,0 0,4.934 0,10.999 L0,49.001 C0,55.066 4.934,60 10.999,60 L49.001,60 C55.065,60 60,55.066 60,49.001 L60,10.999 C60,4.934 55.065,0 49.001,0"></path></g></g></g><defs><filter id="4uqVt_QvbgyDONc-JjP4m"><feColorMatrix type="matrix" values="0 0 0 0 0.99609375  0 0 0 0 0.59765625  0 0 0 0 0  0 0 0 1 0"></feColorMatrix></filter></defs></svg></g> <g filter="url(#colors5326003329)"><svg xmlns="http://www.w3.org/2000/svg" xmlns:xlink="http://www.w3.org/1999/xlink" viewBox="0 0 61.12800000000001 48.02400000000001" width="45" height="45" x="7.5" y="7.5" class="image-svg-letter"><path transform="translate(-2.3040000000000003 48.02400000000001)" d="M23.69-48.02L40.90-48.02L40.90-39.46L27.58-39.46Q22.39-39.46 20.02-38.74Q17.64-38.02 16.06-35.93L16.06-35.93Q14.98-34.49 14.58-33.05Q14.18-31.61 13.90-28.15L13.90-28.15L40.90-28.15L40.90-19.58L13.90-19.58Q14.47-13.39 17.57-10.98Q20.66-8.57 28.08-8.57L28.08-8.57L40.90-8.57L40.90 0L27.58 0Q22.18 0 18.07-0.65L18.07-0.65Q11.59-1.73 7.78-6.34L7.78-6.34Q2.30-12.96 2.30-24.26L2.30-24.26Q2.30-36.79 10.01-43.78L10.01-43.78Q12.67-46.15 15.66-47.09Q18.65-48.02 23.69-48.02L23.69-48.02ZM37.30 0L37.30-39.46L22.03-39.46L22.03-48.02L63.43-48.02L63.43-39.46L47.52-39.46L47.52 0L37.30 0Z"></path></svg></g></g><mask id="7d8219b2-33dc-4a32-ba72-79c3fc9a004f"><g fill="white"><svg xmlns="http://www.w3.org/2000/svg" xmlns:xlink="http://www.w3.org/1999/xlink" xmlns:sketch="http://www.bohemiancoding.com/sketch/ns" viewBox="0 0 60 60" version="1.1" x="0" y="0" style="overflow: visible;" width="60" height="60" filtersec="colorsf5339672571"><g transform="scale(1, 1) skewX(0)"><title>96 - Rounded (Solid)</title><desc>Created with Sketch.</desc><g fill-rule="evenodd"><g><path d="M49.001,0 L10.999,0 C4.934,0 0,4.934 0,10.999 L0,49.001 C0,55.066 4.934,60 10.999,60 L49.001,60 C55.065,60 60,55.066 60,49.001 L60,10.999 C60,4.934 55.065,0 49.001,0"></path></g></g></g><defs></defs></svg></g> <g fill="black"><svg xmlns="http://www.w3.org/2000/svg" xmlns:xlink="http://www.w3.org/1999/xlink" viewBox="0 0 61.12800000000001 48.02400000000001" width="45" height="45" x="7.5" y="7.5" class="image-svg-letter"><path transform="translate(-2.3040000000000003 48.02400000000001)" d="M23.69-48.02L40.90-48.02L40.90-39.46L27.58-39.46Q22.39-39.46 20.02-38.74Q17.64-38.02 16.06-35.93L16.06-35.93Q14.98-34.49 14.58-33.05Q14.18-31.61 13.90-28.15L13.90-28.15L40.90-28.15L40.90-19.58L13.90-19.58Q14.47-13.39 17.57-10.98Q20.66-8.57 28.08-8.57L28.08-8.57L40.90-8.57L40.90 0L27.58 0Q22.18 0 18.07-0.65L18.07-0.65Q11.59-1.73 7.78-6.34L7.78-6.34Q2.30-12.96 2.30-24.26L2.30-24.26Q2.30-36.79 10.01-43.78L10.01-43.78Q12.67-46.15 15.66-47.09Q18.65-48.02 23.69-48.02L23.69-48.02ZM37.30 0L37.30-39.46L22.03-39.46L22.03-48.02L63.43-48.02L63.43-39.46L47.52-39.46L47.52 0L37.30 0Z"></path></svg></g></mask></svg>